<?xml version="1.0" ?><!DOCTYPE svg  PUBLIC '-//W3C//DTD SVG 1.1//EN'  'http://www.w3.org/Graphics/SVG/1.1/DTD/svg11.dtd'><svg enable-background="new 0 0 512 512" height="512px" id="Layer_1" version="1.1" viewBox="0 0 512 512" width="512px" xml:space="preserve" xmlns="http://www.w3.org/2000/svg" xmlns:xlink="http://www.w3.org/1999/xlink"><g><path d="M498.955,217.298c-0.914-8.501-1.68-18.064-3.417-26.391c-1.517-7.267-6.061-14.251-11.73-18.984   c-10.788-9.006-22.733-8.778-36.702-9.226c-4.944-0.158-9.788-0.648-14.73-0.796c-19.795-0.595-39.304-1.267-59.127-1.355   l-17.938-0.014h-30.633c-3.978,0.077-7.932,0.316-11.896,0.324c-10.034,0.02-19.561,0.411-29.564,0.839   c-4.888,0.208-9.878,0.058-14.747,0.454c-4.972,0.405-9.802,0.601-14.784,0.741c-9.546,0.267-16.527,0.943-24.903,5.826   c-6.256,3.646-11.414,9.838-14.288,16.443c-5.583,12.826-7.738,66.838-6.854,84.415c0.853,16.956,1.526,38.876,5.029,55.463   c3.466,16.416,16.965,26.581,33.684,27.786c31.252,2.254,57.8,2.207,88.774,3.084c0.382,0.011,0.763,0.021,1.145,0.029h32.689   c3.917-0.074,7.802-0.298,11.726-0.337c5.179-0.058,10.339,0.092,15.521-0.006c14.636-0.268,29.306-1.05,43.877-1.727   c4.995-0.232,9.87-0.248,14.877-0.648c9.808-0.788,16.08-0.46,24.788-5.94c15.922-10.016,17.02-24.719,18.622-42.52   c0.862-9.573,1.656-18.932,2.189-28.542C501.617,257.201,500.996,236.247,498.955,217.298z M293.495,209.506l-20.822,0.2v109.026   l-18.116,0.32c-0.788-2.812-0.32-47.74-0.32-54.673v-54.674l-19.84-0.212c-0.231-0.663-0.214-0.337-0.214-1.082v-16.175l59.313,0.2   V209.506z M345.447,318.732h-16.819v-10.028c-0.968,0.275-4.039,4.441-5.202,5.147l-3.892,2.885   c-0.527,0.459-5.229,2.653-5.966,2.804c-3.382,0.692-4.009,1.104-7.548,0.452c-4.895-0.9-7.822-4.015-8.491-8.978   c-1.221-9.089-0.922-7.127-0.922-16.546v-69.558h16.495l-0.007,71.505c-0.001,0.933,0.093,1.618,0.142,2.428   c0.193,3.193,0.516,7.94,6.926,5.923c1.853-0.581,8.192-5.832,8.477-7.966l-0.012-71.89h16.819V318.732z M410.459,294.793   l-0.743,10.582c-0.688,4.09-0.995,5.109-2.876,8.769c-3.983,7.741-15.208,7.978-23.279,1.388l-6.094-5.534v8.735l-16.819,0.32   c0.817-2.812,0.323-55.768,0.323-63.407c0-4.06-0.249-61.137-0.001-63.409h16.497v41.411c1.827-0.622,5.445-6.895,13.219-9.427   c6.65-2.163,12.304,0.101,16.22,5.538c2.445,3.4,3.249,9.775,3.222,13.924c-0.015,2.001,0.347,3.432,0.332,5.491V294.793z    M445.146,303.77c2.503,2.093,13.142,3.869,13.17-8.986l0.332-8.08h16.819c0,4.16,0.109,12.632-1.079,16.389   c-8.207,25.945-46.738,21.429-49.134-4.984c-0.863-9.514-0.891-6.676-0.891-16.902v-17.793c0-14.404-0.43-31.415,15.168-37.884   c13.363-5.542,30.256,0.011,34.199,15.354c2.51,9.76,1.654,23.036,1.534,33.545c-1.821,0.874-29.639,0.307-34.081,0.307v16.5   C441.185,296.304,441.288,300.542,445.146,303.77z"/><path d="M52.089,319.378c0-16.337-0.32-35.245-0.019-51.457c0.04-2.135,4.555-15.22,5.38-18.236l17.106-57.848L55,191.589   c-0.043,0.067-0.095,0.099-0.109,0.213l-2.443,8.557c-0.399,2.298-2.973,11.071-3.19,12.338c-0.46,2.681-5.25,20.192-6.293,24.439   l-0.579,3.303c-0.657-1.031-8.983-32.961-10.118-36.466c-1-3.088-2.069-9.408-3.466-12.384H8.425   c-0.007,3.486,9.472,26.986,10.76,32.267c1.252,5.142,4.004,10.795,5.384,15.964l4.83,16.846c0.863,2.932,1.461,5.621,2.076,8.602   c1.468,7.116-0.081,49.058,0.566,53.137c0.295,1.864,2.277,1.309,3.876,1.299C39.551,319.682,49.869,320,52.089,319.378   L52.089,319.378z"/><path d="M171.438,309.997l0.198,9.509l17.393-0.003c0.584-1.994,0.237-82.372,0.201-94.278h-17.817   c0.004,0.593,0.021,1.59,0.025,3.246c0.042,23.186-0.077,45.634,0.322,68.906c-1.544,2.32-4.706,4.527-6.79,5.826   c-1.26,0.785-3.631,1.591-5.092,1.228c-1.956-0.481-2.165-2.183-2.638-3.85c-0.852-2.996-0.403-64.064-0.36-75.356h-17.839   c-0.015,0.213,0.022,0.414,0.015,0.622c-0.241,6.321,0.04,13.357,0.04,19.77l-0.006,59.208c-0.024,4.315,1.427,11.888,5.55,14.185   c2.588,1.439,4.268,2.048,7.737,2.004c2.716-0.031,5.569-0.773,7.963-2.061C167.722,314.984,169.063,311.523,171.438,309.997   L171.438,309.997z"/><path d="M92.196,295.762c-0.176-1.074,0-38.276,0-40.44c0-4.879-0.562-12.826,4.458-15.599c2.24-1.236,5.949-0.803,7.92,0.955   c1.894,1.688,2.657,4.85,3.076,7.273c0.285,1.655,0.071,37.708,0.071,40.37c0,4.791,0.593,13.005-4.576,15.48   C96.923,306.781,93.08,301.188,92.196,295.762L92.196,295.762z M95.107,223.293c-25.202,4.598-21.024,32.317-21.024,53.705   c0,9.871-0.765,24.298,4.638,32.888c5.903,9.39,15.511,11.886,25.979,10.677c9.327-1.076,17.256-8.77,19.442-17.756   c2.665-10.965,1.692-24.448,1.692-35.838c0-10.032,0.929-24.211-4.58-32.948C115.667,225.165,105.222,221.449,95.107,223.293z"/><path d="M383.614,238.825c-8.223,2.42-6.146,5.817-6.146,14.557v41.411c0,1.682-0.083,3.55-0.025,5.202   c0.109,3.202,7.024,5.815,10.643,5.093c6.143-1.227,5.879-10.141,5.879-14.824c0-6.9,0-13.803,0-20.707   c0-6.724,0.284-14.073,0.011-20.716C393.725,242.695,390.672,236.745,383.614,238.825L383.614,238.825z"/><path d="M441.419,260.91h16.995c0.322-0.825,1.827-15.702-2.582-20.241c-1.854-1.907-3.055-2.18-5.921-2.177   c-8.251,0.008-8.727,8.152-8.727,14.565C441.185,255.064,440.782,259.275,441.419,260.91z"/></g></svg>