<?xml version="1.0" ?><!DOCTYPE svg  PUBLIC '-//W3C//DTD SVG 1.1//EN'  'http://www.w3.org/Graphics/SVG/1.1/DTD/svg11.dtd'><svg height="67px" id="Layer_1" style="enable-background:new 0 0 67 67;" version="1.1" viewBox="0 0 67 67" width="67px" xml:space="preserve" xmlns="http://www.w3.org/2000/svg" xmlns:xlink="http://www.w3.org/1999/xlink"><path d="M37.167,22.283c-2.619,0.953-4.274,3.411-4.086,6.102  l0.063,1.038l-1.048-0.128c-3.813-0.486-7.145-2.14-9.974-4.914l-1.383-1.378l-0.356,1.018c-0.754,2.267-0.272,4.66,1.299,6.271  c0.838,0.89,0.649,1.017-0.796,0.487c-0.503-0.17-0.943-0.297-0.985-0.233c-0.146,0.148,0.356,2.076,0.754,2.839  c0.545,1.06,1.655,2.098,2.871,2.712l1.027,0.487l-1.215,0.021c-1.173,0-1.215,0.021-1.089,0.466  c0.419,1.377,2.074,2.839,3.918,3.475l1.299,0.444l-1.131,0.678c-1.676,0.975-3.646,1.525-5.616,1.568  C19.775,43.256,19,43.341,19,43.404c0,0.212,2.557,1.398,4.044,1.864c4.463,1.377,9.765,0.784,13.746-1.567  c2.829-1.674,5.657-5,6.978-8.22c0.713-1.716,1.425-4.852,1.425-6.355c0-0.975,0.063-1.102,1.236-2.267  c0.692-0.679,1.341-1.42,1.467-1.632c0.21-0.402,0.188-0.402-0.88-0.042c-1.781,0.636-2.033,0.551-1.152-0.402  c0.649-0.678,1.425-1.907,1.425-2.268c0-0.063-0.314,0.043-0.671,0.233c-0.377,0.212-1.215,0.53-1.844,0.721l-1.131,0.36  l-1.027-0.699c-0.566-0.382-1.361-0.806-1.781-0.933C39.766,21.901,38.131,21.944,37.167,22.283z M33.5,1l28.146,16.25v32.5L33.5,66  L5.354,49.75v-32.5L33.5,1z" style="fill-rule:evenodd;clip-rule:evenodd;fill:#598DCA;"/></svg>